<svg xmlns="http://www.w3.org/2000/svg" xmlns:xlink="http://www.w3.org/1999/xlink" width="500" zoomAndPan="magnify" viewBox="0 0 375 374.999991" height="500" preserveAspectRatio="xMidYMid meet" version="1.2"><defs/><g id="927cdc41d5"><g style="fill:#000000;fill-opacity:1;"><g transform="translate(65.071462, 220.627428)"><path style="stroke:none" d="M 4.609375 -17.0625 L 9.0625 -3.140625 L 13.515625 -17.0625 L 16.28125 -17.0625 L 16.28125 0 L 14.140625 0 L 14.140625 -6.640625 L 14.328125 -13.296875 L 9.875 0 L 8.234375 0 L 3.78125 -13.25 L 3.984375 -6.640625 L 3.984375 0 L 1.84375 0 L 1.84375 -17.0625 Z M 4.609375 -17.0625 "/></g></g><g style="fill:#000000;fill-opacity:1;"><g transform="translate(88.096367, 220.627428)"><path style="stroke:none" d="M 9.796875 -4.453125 L 4.03125 -4.453125 L 2.703125 0 L 0.5 0 L 6 -17.0625 L 7.84375 -17.0625 L 13.34375 0 L 11.140625 0 Z M 4.59375 -6.3125 L 9.25 -6.3125 L 6.921875 -14.0625 Z M 4.59375 -6.3125 "/></g></g><g style="fill:#000000;fill-opacity:1;"><g transform="translate(106.82049, 220.627428)"><path style="stroke:none" d="M 1.84375 0 L 1.84375 -17.0625 L 5.90625 -17.0625 C 7.894531 -17.0625 9.441406 -16.4375 10.546875 -15.1875 C 11.648438 -13.945312 12.203125 -12.195312 12.203125 -9.9375 L 12.203125 -7.078125 C 12.203125 -4.816406 11.640625 -3.070312 10.515625 -1.84375 C 9.398438 -0.613281 7.78125 0 5.65625 0 Z M 3.984375 -15.21875 L 3.984375 -1.84375 L 5.703125 -1.84375 C 7.210938 -1.84375 8.316406 -2.273438 9.015625 -3.140625 C 9.710938 -4.003906 10.066406 -5.28125 10.078125 -6.96875 L 10.078125 -10 C 10.078125 -11.789062 9.726562 -13.109375 9.03125 -13.953125 C 8.34375 -14.796875 7.300781 -15.21875 5.90625 -15.21875 Z M 3.984375 -15.21875 "/></g></g><g style="fill:#000000;fill-opacity:1;"><g transform="translate(125.415708, 220.627428)"><path style="stroke:none" d="M 7 -6.90625 L 4 -6.90625 L 4 0 L 1.84375 0 L 1.84375 -17.0625 L 6.625 -17.0625 C 8.289062 -17.0625 9.550781 -16.625 10.40625 -15.75 C 11.269531 -14.882812 11.703125 -13.613281 11.703125 -11.9375 C 11.703125 -10.875 11.46875 -9.953125 11 -9.171875 C 10.539062 -8.390625 9.882812 -7.796875 9.03125 -7.390625 L 12.34375 -0.140625 L 12.34375 0 L 10.03125 0 Z M 4 -8.75 L 6.59375 -8.75 C 7.5 -8.75 8.21875 -9.035156 8.75 -9.609375 C 9.28125 -10.191406 9.546875 -10.96875 9.546875 -11.9375 C 9.546875 -14.125 8.554688 -15.21875 6.578125 -15.21875 L 4 -15.21875 Z M 4 -8.75 "/></g></g><g style="fill:#000000;fill-opacity:1;"><g transform="translate(143.049988, 220.627428)"><path style="stroke:none" d="M 4.078125 0 L 1.9375 0 L 1.9375 -17.0625 L 4.078125 -17.0625 Z M 4.078125 0 "/></g></g><g style="fill:#000000;fill-opacity:1;"><g transform="translate(153.945987, 220.627428)"><path style="stroke:none" d="M 1.84375 0 L 1.84375 -17.0625 L 5.90625 -17.0625 C 7.894531 -17.0625 9.441406 -16.4375 10.546875 -15.1875 C 11.648438 -13.945312 12.203125 -12.195312 12.203125 -9.9375 L 12.203125 -7.078125 C 12.203125 -4.816406 11.640625 -3.070312 10.515625 -1.84375 C 9.398438 -0.613281 7.78125 0 5.65625 0 Z M 3.984375 -15.21875 L 3.984375 -1.84375 L 5.703125 -1.84375 C 7.210938 -1.84375 8.316406 -2.273438 9.015625 -3.140625 C 9.710938 -4.003906 10.066406 -5.28125 10.078125 -6.96875 L 10.078125 -10 C 10.078125 -11.789062 9.726562 -13.109375 9.03125 -13.953125 C 8.34375 -14.796875 7.300781 -15.21875 5.90625 -15.21875 Z M 3.984375 -15.21875 "/></g></g><g style="fill:#000000;fill-opacity:1;"><g transform="translate(172.541205, 220.627428)"><path style="stroke:none" d=""/></g></g><g style="fill:#000000;fill-opacity:1;"><g transform="translate(182.933298, 220.627428)"><path style="stroke:none" d="M 9.796875 -4.453125 L 4.03125 -4.453125 L 2.703125 0 L 0.5 0 L 6 -17.0625 L 7.84375 -17.0625 L 13.34375 0 L 11.140625 0 Z M 4.59375 -6.3125 L 9.25 -6.3125 L 6.921875 -14.0625 Z M 4.59375 -6.3125 "/></g></g><g style="fill:#000000;fill-opacity:1;"><g transform="translate(201.657422, 220.627428)"><path style="stroke:none" d="M 12.546875 -5.421875 C 12.453125 -3.585938 11.9375 -2.1875 11 -1.21875 C 10.0625 -0.25 8.742188 0.234375 7.046875 0.234375 C 5.335938 0.234375 3.976562 -0.414062 2.96875 -1.71875 C 1.957031 -3.019531 1.453125 -4.785156 1.453125 -7.015625 L 1.453125 -10.109375 C 1.453125 -12.328125 1.96875 -14.078125 3 -15.359375 C 4.039062 -16.648438 5.457031 -17.296875 7.25 -17.296875 C 8.894531 -17.296875 10.164062 -16.800781 11.0625 -15.8125 C 11.96875 -14.820312 12.460938 -13.410156 12.546875 -11.578125 L 10.375 -11.578125 C 10.28125 -12.972656 9.984375 -13.96875 9.484375 -14.5625 C 8.992188 -15.15625 8.25 -15.453125 7.25 -15.453125 C 6.082031 -15.453125 5.1875 -14.992188 4.5625 -14.078125 C 3.9375 -13.171875 3.625 -11.835938 3.625 -10.078125 L 3.625 -6.953125 C 3.625 -5.222656 3.914062 -3.894531 4.5 -2.96875 C 5.082031 -2.050781 5.929688 -1.59375 7.046875 -1.59375 C 8.160156 -1.59375 8.960938 -1.867188 9.453125 -2.421875 C 9.953125 -2.984375 10.257812 -3.984375 10.375 -5.421875 Z M 12.546875 -5.421875 "/></g></g><g style="fill:#000000;fill-opacity:1;"><g transform="translate(220.158889, 220.627428)"><path style="stroke:none" d="M 9.796875 -4.453125 L 4.03125 -4.453125 L 2.703125 0 L 0.5 0 L 6 -17.0625 L 7.84375 -17.0625 L 13.34375 0 L 11.140625 0 Z M 4.59375 -6.3125 L 9.25 -6.3125 L 6.921875 -14.0625 Z M 4.59375 -6.3125 "/></g></g><g style="fill:#000000;fill-opacity:1;"><g transform="translate(238.883013, 220.627428)"><path style="stroke:none" d="M 1.84375 0 L 1.84375 -17.0625 L 5.90625 -17.0625 C 7.894531 -17.0625 9.441406 -16.4375 10.546875 -15.1875 C 11.648438 -13.945312 12.203125 -12.195312 12.203125 -9.9375 L 12.203125 -7.078125 C 12.203125 -4.816406 11.640625 -3.070312 10.515625 -1.84375 C 9.398438 -0.613281 7.78125 0 5.65625 0 Z M 3.984375 -15.21875 L 3.984375 -1.84375 L 5.703125 -1.84375 C 7.210938 -1.84375 8.316406 -2.273438 9.015625 -3.140625 C 9.710938 -4.003906 10.066406 -5.28125 10.078125 -6.96875 L 10.078125 -10 C 10.078125 -11.789062 9.726562 -13.109375 9.03125 -13.953125 C 8.34375 -14.796875 7.300781 -15.21875 5.90625 -15.21875 Z M 3.984375 -15.21875 "/></g></g><g style="fill:#000000;fill-opacity:1;"><g transform="translate(257.478219, 220.627428)"><path style="stroke:none" d="M 10.015625 -7.890625 L 3.984375 -7.890625 L 3.984375 -1.84375 L 11.015625 -1.84375 L 11.015625 0 L 1.84375 0 L 1.84375 -17.0625 L 10.90625 -17.0625 L 10.90625 -15.21875 L 3.984375 -15.21875 L 3.984375 -9.734375 L 10.015625 -9.734375 Z M 10.015625 -7.890625 "/></g></g><g style="fill:#000000;fill-opacity:1;"><g transform="translate(274.292198, 220.627428)"><path style="stroke:none" d="M 4.609375 -17.0625 L 9.0625 -3.140625 L 13.515625 -17.0625 L 16.28125 -17.0625 L 16.28125 0 L 14.140625 0 L 14.140625 -6.640625 L 14.328125 -13.296875 L 9.875 0 L 8.234375 0 L 3.78125 -13.25 L 3.984375 -6.640625 L 3.984375 0 L 1.84375 0 L 1.84375 -17.0625 Z M 4.609375 -17.0625 "/></g></g><g style="fill:#000000;fill-opacity:1;"><g transform="translate(297.317114, 220.627428)"><path style="stroke:none" d="M 6.28125 -8.5 L 9.78125 -17.0625 L 12.203125 -17.0625 L 7.34375 -6.359375 L 7.34375 0 L 5.203125 0 L 5.203125 -6.359375 L 0.359375 -17.0625 L 2.796875 -17.0625 Z M 6.28125 -8.5 "/></g></g><g style="fill:#000000;fill-opacity:1;"><g transform="translate(53.65216, 188.337283)"><path style="stroke:none" d="M 3.6875 -31.15625 L 10.90625 -31.15625 L 10.90625 -5.875 L 26.53125 -5.875 L 26.53125 0 L 3.6875 0 Z M 3.6875 -31.15625 "/></g></g><g style="fill:#000000;fill-opacity:1;"><g transform="translate(82.137365, 188.337283)"><path style="stroke:none" d="M 24.21875 -6.671875 L 9.75 -6.671875 L 6.984375 0 L -0.40625 0 L 13.484375 -31.15625 L 20.609375 -31.15625 L 34.546875 0 L 26.96875 0 Z M 21.953125 -12.15625 L 17 -24.078125 L 12.0625 -12.15625 Z M 21.953125 -12.15625 "/></g></g><g style="fill:#000000;fill-opacity:1;"><g transform="translate(117.565835, 188.337283)"><path style="stroke:none" d="M 13.9375 0.53125 C 11.46875 0.53125 9.082031 0.195312 6.78125 -0.46875 C 4.488281 -1.132812 2.644531 -2.003906 1.25 -3.078125 L 3.6875 -8.5 C 5.03125 -7.519531 6.617188 -6.734375 8.453125 -6.140625 C 10.296875 -5.546875 12.140625 -5.25 13.984375 -5.25 C 16.023438 -5.25 17.535156 -5.550781 18.515625 -6.15625 C 19.492188 -6.769531 19.984375 -7.582031 19.984375 -8.59375 C 19.984375 -9.332031 19.691406 -9.945312 19.109375 -10.4375 C 18.535156 -10.925781 17.796875 -11.316406 16.890625 -11.609375 C 15.984375 -11.910156 14.757812 -12.238281 13.21875 -12.59375 C 10.84375 -13.15625 8.898438 -13.71875 7.390625 -14.28125 C 5.878906 -14.851562 4.582031 -15.757812 3.5 -17 C 2.414062 -18.25 1.875 -19.910156 1.875 -21.984375 C 1.875 -23.796875 2.363281 -25.4375 3.34375 -26.90625 C 4.320312 -28.375 5.796875 -29.535156 7.765625 -30.390625 C 9.742188 -31.253906 12.15625 -31.6875 15 -31.6875 C 16.988281 -31.6875 18.929688 -31.445312 20.828125 -30.96875 C 22.734375 -30.5 24.394531 -29.820312 25.8125 -28.9375 L 23.59375 -23.453125 C 20.71875 -25.085938 17.835938 -25.90625 14.953125 -25.90625 C 12.941406 -25.90625 11.453125 -25.578125 10.484375 -24.921875 C 9.515625 -24.273438 9.03125 -23.414062 9.03125 -22.34375 C 9.03125 -21.28125 9.585938 -20.488281 10.703125 -19.96875 C 11.816406 -19.445312 13.515625 -18.929688 15.796875 -18.421875 C 18.171875 -17.859375 20.113281 -17.296875 21.625 -16.734375 C 23.144531 -16.171875 24.445312 -15.28125 25.53125 -14.0625 C 26.613281 -12.84375 27.15625 -11.195312 27.15625 -9.125 C 27.15625 -7.34375 26.65625 -5.71875 25.65625 -4.25 C 24.664062 -2.78125 23.175781 -1.613281 21.1875 -0.75 C 19.195312 0.101562 16.78125 0.53125 13.9375 0.53125 Z M 13.9375 0.53125 "/></g></g><g style="fill:#000000;fill-opacity:1;"><g transform="translate(147.297264, 188.337283)"><path style="stroke:none" d="M 13.9375 0.53125 C 11.46875 0.53125 9.082031 0.195312 6.78125 -0.46875 C 4.488281 -1.132812 2.644531 -2.003906 1.25 -3.078125 L 3.6875 -8.5 C 5.03125 -7.519531 6.617188 -6.734375 8.453125 -6.140625 C 10.296875 -5.546875 12.140625 -5.25 13.984375 -5.25 C 16.023438 -5.25 17.535156 -5.550781 18.515625 -6.15625 C 19.492188 -6.769531 19.984375 -7.582031 19.984375 -8.59375 C 19.984375 -9.332031 19.691406 -9.945312 19.109375 -10.4375 C 18.535156 -10.925781 17.796875 -11.316406 16.890625 -11.609375 C 15.984375 -11.910156 14.757812 -12.238281 13.21875 -12.59375 C 10.84375 -13.15625 8.898438 -13.71875 7.390625 -14.28125 C 5.878906 -14.851562 4.582031 -15.757812 3.5 -17 C 2.414062 -18.25 1.875 -19.910156 1.875 -21.984375 C 1.875 -23.796875 2.363281 -25.4375 3.34375 -26.90625 C 4.320312 -28.375 5.796875 -29.535156 7.765625 -30.390625 C 9.742188 -31.253906 12.15625 -31.6875 15 -31.6875 C 16.988281 -31.6875 18.929688 -31.445312 20.828125 -30.96875 C 22.734375 -30.5 24.394531 -29.820312 25.8125 -28.9375 L 23.59375 -23.453125 C 20.71875 -25.085938 17.835938 -25.90625 14.953125 -25.90625 C 12.941406 -25.90625 11.453125 -25.578125 10.484375 -24.921875 C 9.515625 -24.273438 9.03125 -23.414062 9.03125 -22.34375 C 9.03125 -21.28125 9.585938 -20.488281 10.703125 -19.96875 C 11.816406 -19.445312 13.515625 -18.929688 15.796875 -18.421875 C 18.171875 -17.859375 20.113281 -17.296875 21.625 -16.734375 C 23.144531 -16.171875 24.445312 -15.28125 25.53125 -14.0625 C 26.613281 -12.84375 27.15625 -11.195312 27.15625 -9.125 C 27.15625 -7.34375 26.65625 -5.71875 25.65625 -4.25 C 24.664062 -2.78125 23.175781 -1.613281 21.1875 -0.75 C 19.195312 0.101562 16.78125 0.53125 13.9375 0.53125 Z M 13.9375 0.53125 "/></g></g><g style="fill:#000000;fill-opacity:1;"><g transform="translate(177.028692, 188.337283)"><path style="stroke:none" d="M 15.09375 0.53125 C 12.507812 0.53125 10.207031 -0.101562 8.1875 -1.375 C 6.164062 -2.65625 4.582031 -4.503906 3.4375 -6.921875 C 2.300781 -9.335938 1.734375 -12.222656 1.734375 -15.578125 C 1.734375 -18.929688 2.300781 -21.816406 3.4375 -24.234375 C 4.582031 -26.648438 6.164062 -28.492188 8.1875 -29.765625 C 10.207031 -31.046875 12.507812 -31.6875 15.09375 -31.6875 C 17.675781 -31.6875 19.972656 -31.046875 21.984375 -29.765625 C 24.003906 -28.492188 25.585938 -26.648438 26.734375 -24.234375 C 27.878906 -21.816406 28.453125 -18.929688 28.453125 -15.578125 C 28.453125 -12.222656 27.878906 -9.335938 26.734375 -6.921875 C 25.585938 -4.503906 24.003906 -2.65625 21.984375 -1.375 C 19.972656 -0.101562 17.675781 0.53125 15.09375 0.53125 Z M 15.09375 -5.5625 C 16.988281 -5.5625 18.476562 -6.378906 19.5625 -8.015625 C 20.644531 -9.648438 21.1875 -12.171875 21.1875 -15.578125 C 21.1875 -18.992188 20.644531 -21.515625 19.5625 -23.140625 C 18.476562 -24.773438 16.988281 -25.59375 15.09375 -25.59375 C 13.21875 -25.59375 11.738281 -24.773438 10.65625 -23.140625 C 9.570312 -21.515625 9.03125 -18.992188 9.03125 -15.578125 C 9.03125 -12.171875 9.570312 -9.648438 10.65625 -8.015625 C 11.738281 -6.378906 13.21875 -5.5625 15.09375 -5.5625 Z M 15.09375 -5.5625 "/></g></g><g style="fill:#000000;fill-opacity:1;"><g transform="translate(208.587556, 188.337283)"><path style="stroke:none" d=""/></g></g><g style="fill:#000000;fill-opacity:1;"><g transform="translate(222.518603, 188.337283)"><path style="stroke:none" d=""/></g></g><g style="fill:#000000;fill-opacity:1;"><g transform="translate(236.457324, 188.337283)"><path style="stroke:none" d="M 26.578125 -16.203125 C 28.359375 -15.640625 29.753906 -14.695312 30.765625 -13.375 C 31.773438 -12.050781 32.28125 -10.425781 32.28125 -8.5 C 32.28125 -5.769531 31.21875 -3.671875 29.09375 -2.203125 C 26.96875 -0.734375 23.875 0 19.8125 0 L 3.6875 0 L 3.6875 -31.15625 L 18.921875 -31.15625 C 22.710938 -31.15625 25.625 -30.425781 27.65625 -28.96875 C 29.695312 -27.519531 30.71875 -25.550781 30.71875 -23.0625 C 30.71875 -21.539062 30.351562 -20.1875 29.625 -19 C 28.894531 -17.820312 27.878906 -16.890625 26.578125 -16.203125 Z M 10.859375 -25.734375 L 10.859375 -18.390625 L 18.03125 -18.390625 C 19.8125 -18.390625 21.160156 -18.695312 22.078125 -19.3125 C 22.992188 -19.9375 23.453125 -20.859375 23.453125 -22.078125 C 23.453125 -23.296875 22.992188 -24.207031 22.078125 -24.8125 C 21.160156 -25.425781 19.8125 -25.734375 18.03125 -25.734375 Z M 19.28125 -5.4375 C 21.175781 -5.4375 22.601562 -5.742188 23.5625 -6.359375 C 24.53125 -6.984375 25.015625 -7.953125 25.015625 -9.265625 C 25.015625 -11.835938 23.101562 -13.125 19.28125 -13.125 L 10.859375 -13.125 L 10.859375 -5.4375 Z M 19.28125 -5.4375 "/></g></g><g style="fill:#000000;fill-opacity:1;"><g transform="translate(271.841285, 188.337283)"><path style="stroke:none" d="M 9.4375 0.53125 C 7.332031 0.53125 5.394531 0.140625 3.625 -0.640625 C 1.863281 -1.429688 0.414062 -2.550781 -0.71875 -4 L 3.296875 -8.8125 C 4.984375 -6.53125 6.910156 -5.390625 9.078125 -5.390625 C 12.015625 -5.390625 13.484375 -7.109375 13.484375 -10.546875 L 13.484375 -25.375 L 2.53125 -25.375 L 2.53125 -31.15625 L 20.65625 -31.15625 L 20.65625 -10.953125 C 20.65625 -7.117188 19.703125 -4.242188 17.796875 -2.328125 C 15.898438 -0.421875 13.113281 0.53125 9.4375 0.53125 Z M 9.4375 0.53125 "/></g></g><g style="fill:#000000;fill-opacity:1;"><g transform="translate(297.255423, 188.337283)"><path style="stroke:none" d="M 9.4375 0.53125 C 7.332031 0.53125 5.394531 0.140625 3.625 -0.640625 C 1.863281 -1.429688 0.414062 -2.550781 -0.71875 -4 L 3.296875 -8.8125 C 4.984375 -6.53125 6.910156 -5.390625 9.078125 -5.390625 C 12.015625 -5.390625 13.484375 -7.109375 13.484375 -10.546875 L 13.484375 -25.375 L 2.53125 -25.375 L 2.53125 -31.15625 L 20.65625 -31.15625 L 20.65625 -10.953125 C 20.65625 -7.117188 19.703125 -4.242188 17.796875 -2.328125 C 15.898438 -0.421875 13.113281 0.53125 9.4375 0.53125 Z M 9.4375 0.53125 "/></g></g><path style="fill:none;stroke-width:5;stroke-linecap:butt;stroke-linejoin:miter;stroke:#cc0624;stroke-opacity:1;stroke-miterlimit:4;" d="M 0.000899082 2.498597 L 43.042577 2.498597 " transform="matrix(0,0.749455,-0.749455,0,223.661649,157.179014)"/></g></svg>