<svg xmlns="http://www.w3.org/2000/svg" xmlns:xlink="http://www.w3.org/1999/xlink" width="500" zoomAndPan="magnify" viewBox="0 0 375 374.999991" height="500" preserveAspectRatio="xMidYMid meet" version="1.2"><defs><clipPath id="1d3a803d65"><path d="M 70.585938 189 L 157 189 L 157 215 L 70.585938 215 Z M 70.585938 189 "/></clipPath><clipPath id="6779045eca"><path d="M 218 189 L 304.585938 189 L 304.585938 215 L 218 215 Z M 218 189 "/></clipPath><clipPath id="95de339af8"><path d="M 193 187.5 L 208 187.5 L 208 231 L 193 231 Z M 193 187.5 "/></clipPath><clipPath id="5ee5df151c"><path d="M 211 202 L 296 202 L 296 250.5 L 211 250.5 Z M 211 202 "/></clipPath><clipPath id="57cdcbe2d3"><path d="M 79 201 L 183 201 L 183 250.5 L 79 250.5 Z M 79 201 "/></clipPath><clipPath id="42058f510b"><path d="M 242 218 L 274 218 L 274 244 L 242 244 Z M 242 218 "/></clipPath><clipPath id="b208be28b3"><path d="M 247.710938 218.847656 L 273.992188 230.976562 L 268.328125 243.25 L 242.046875 231.121094 Z M 247.710938 218.847656 "/></clipPath><clipPath id="5b4a9bade0"><path d="M 242 218 L 274 218 L 274 244 L 242 244 Z M 242 218 "/></clipPath><clipPath id="201833e162"><path d="M 247.710938 218.847656 L 274.269531 231.105469 L 268.613281 243.363281 L 242.054688 231.105469 Z M 247.710938 218.847656 "/></clipPath><clipPath id="b9fa8da104"><path d="M 247.710938 218.847656 L 273.960938 230.964844 L 268.304688 243.21875 L 242.054688 231.105469 Z M 247.710938 218.847656 "/></clipPath><clipPath id="f0c10f73c9"><path d="M 37.5 37.5 L 337.5 37.5 L 337.5 337.5 L 37.5 337.5 Z M 37.5 37.5 "/></clipPath><clipPath id="059022809f"><path d="M 187.5 37.5 C 104.65625 37.5 37.5 104.65625 37.5 187.5 C 37.5 270.34375 104.65625 337.5 187.5 337.5 C 270.34375 337.5 337.5 270.34375 337.5 187.5 C 337.5 104.65625 270.34375 37.5 187.5 37.5 Z M 187.5 37.5 "/></clipPath></defs><g id="579f8a8e12"><g style="fill:#000000;fill-opacity:1;"><g transform="translate(72.597515, 177.685286)"><path style="stroke:none" d="M 3.109375 -26.171875 L 9.15625 -26.171875 L 9.15625 -4.9375 L 22.28125 -4.9375 L 22.28125 0 L 3.109375 0 Z M 3.109375 -26.171875 "/></g></g><g style="fill:#000000;fill-opacity:1;"><g transform="translate(96.526661, 177.685286)"><path style="stroke:none" d="M 20.34375 -5.609375 L 8.1875 -5.609375 L 5.875 0 L -0.34375 0 L 11.328125 -26.171875 L 17.3125 -26.171875 L 29.015625 0 L 22.65625 0 Z M 18.4375 -10.203125 L 14.28125 -20.234375 L 10.140625 -10.203125 Z M 18.4375 -10.203125 "/></g></g><g style="fill:#000000;fill-opacity:1;"><g transform="translate(126.288534, 177.685286)"><path style="stroke:none" d="M 11.703125 0.453125 C 9.628906 0.453125 7.625 0.171875 5.6875 -0.390625 C 3.757812 -0.953125 2.210938 -1.679688 1.046875 -2.578125 L 3.109375 -7.140625 C 4.222656 -6.316406 5.550781 -5.65625 7.09375 -5.15625 C 8.644531 -4.65625 10.191406 -4.40625 11.734375 -4.40625 C 13.460938 -4.40625 14.734375 -4.660156 15.546875 -5.171875 C 16.367188 -5.679688 16.78125 -6.363281 16.78125 -7.21875 C 16.78125 -7.84375 16.535156 -8.359375 16.046875 -8.765625 C 15.566406 -9.179688 14.945312 -9.515625 14.1875 -9.765625 C 13.425781 -10.015625 12.398438 -10.285156 11.109375 -10.578125 C 9.109375 -11.054688 7.472656 -11.53125 6.203125 -12 C 4.929688 -12.476562 3.84375 -13.238281 2.9375 -14.28125 C 2.03125 -15.332031 1.578125 -16.726562 1.578125 -18.46875 C 1.578125 -19.988281 1.984375 -21.363281 2.796875 -22.59375 C 3.617188 -23.832031 4.859375 -24.8125 6.515625 -25.53125 C 8.179688 -26.257812 10.207031 -26.625 12.59375 -26.625 C 14.269531 -26.625 15.90625 -26.421875 17.5 -26.015625 C 19.09375 -25.617188 20.488281 -25.046875 21.6875 -24.296875 L 19.8125 -19.703125 C 17.394531 -21.078125 14.976562 -21.765625 12.5625 -21.765625 C 10.863281 -21.765625 9.609375 -21.488281 8.796875 -20.9375 C 7.992188 -20.382812 7.59375 -19.660156 7.59375 -18.765625 C 7.59375 -17.867188 8.054688 -17.203125 8.984375 -16.765625 C 9.921875 -16.328125 11.351562 -15.898438 13.28125 -15.484375 C 15.269531 -15.003906 16.898438 -14.523438 18.171875 -14.046875 C 19.441406 -13.578125 20.53125 -12.832031 21.4375 -11.8125 C 22.351562 -10.789062 22.8125 -9.410156 22.8125 -7.671875 C 22.8125 -6.171875 22.390625 -4.800781 21.546875 -3.5625 C 20.710938 -2.332031 19.460938 -1.351562 17.796875 -0.625 C 16.128906 0.09375 14.097656 0.453125 11.703125 0.453125 Z M 11.703125 0.453125 "/></g></g><g style="fill:#000000;fill-opacity:1;"><g transform="translate(151.264577, 177.685286)"><path style="stroke:none" d="M 11.703125 0.453125 C 9.628906 0.453125 7.625 0.171875 5.6875 -0.390625 C 3.757812 -0.953125 2.210938 -1.679688 1.046875 -2.578125 L 3.109375 -7.140625 C 4.222656 -6.316406 5.550781 -5.65625 7.09375 -5.15625 C 8.644531 -4.65625 10.191406 -4.40625 11.734375 -4.40625 C 13.460938 -4.40625 14.734375 -4.660156 15.546875 -5.171875 C 16.367188 -5.679688 16.78125 -6.363281 16.78125 -7.21875 C 16.78125 -7.84375 16.535156 -8.359375 16.046875 -8.765625 C 15.566406 -9.179688 14.945312 -9.515625 14.1875 -9.765625 C 13.425781 -10.015625 12.398438 -10.285156 11.109375 -10.578125 C 9.109375 -11.054688 7.472656 -11.53125 6.203125 -12 C 4.929688 -12.476562 3.84375 -13.238281 2.9375 -14.28125 C 2.03125 -15.332031 1.578125 -16.726562 1.578125 -18.46875 C 1.578125 -19.988281 1.984375 -21.363281 2.796875 -22.59375 C 3.617188 -23.832031 4.859375 -24.8125 6.515625 -25.53125 C 8.179688 -26.257812 10.207031 -26.625 12.59375 -26.625 C 14.269531 -26.625 15.90625 -26.421875 17.5 -26.015625 C 19.09375 -25.617188 20.488281 -25.046875 21.6875 -24.296875 L 19.8125 -19.703125 C 17.394531 -21.078125 14.976562 -21.765625 12.5625 -21.765625 C 10.863281 -21.765625 9.609375 -21.488281 8.796875 -20.9375 C 7.992188 -20.382812 7.59375 -19.660156 7.59375 -18.765625 C 7.59375 -17.867188 8.054688 -17.203125 8.984375 -16.765625 C 9.921875 -16.328125 11.351562 -15.898438 13.28125 -15.484375 C 15.269531 -15.003906 16.898438 -14.523438 18.171875 -14.046875 C 19.441406 -13.578125 20.53125 -12.832031 21.4375 -11.8125 C 22.351562 -10.789062 22.8125 -9.410156 22.8125 -7.671875 C 22.8125 -6.171875 22.390625 -4.800781 21.546875 -3.5625 C 20.710938 -2.332031 19.460938 -1.351562 17.796875 -0.625 C 16.128906 0.09375 14.097656 0.453125 11.703125 0.453125 Z M 11.703125 0.453125 "/></g></g><g style="fill:#000000;fill-opacity:1;"><g transform="translate(176.240619, 177.685286)"><path style="stroke:none" d="M 12.671875 0.453125 C 10.503906 0.453125 8.570312 -0.0820312 6.875 -1.15625 C 5.1875 -2.226562 3.859375 -3.78125 2.890625 -5.8125 C 1.929688 -7.84375 1.453125 -10.269531 1.453125 -13.09375 C 1.453125 -15.90625 1.929688 -18.328125 2.890625 -20.359375 C 3.859375 -22.390625 5.1875 -23.941406 6.875 -25.015625 C 8.570312 -26.085938 10.503906 -26.625 12.671875 -26.625 C 14.835938 -26.625 16.769531 -26.085938 18.46875 -25.015625 C 20.164062 -23.941406 21.492188 -22.390625 22.453125 -20.359375 C 23.410156 -18.328125 23.890625 -15.90625 23.890625 -13.09375 C 23.890625 -10.269531 23.410156 -7.84375 22.453125 -5.8125 C 21.492188 -3.78125 20.164062 -2.226562 18.46875 -1.15625 C 16.769531 -0.0820312 14.835938 0.453125 12.671875 0.453125 Z M 12.671875 -4.671875 C 14.265625 -4.671875 15.515625 -5.351562 16.421875 -6.71875 C 17.335938 -8.09375 17.796875 -10.21875 17.796875 -13.09375 C 17.796875 -15.957031 17.335938 -18.070312 16.421875 -19.4375 C 15.515625 -20.8125 14.265625 -21.5 12.671875 -21.5 C 11.097656 -21.5 9.859375 -20.8125 8.953125 -19.4375 C 8.046875 -18.070312 7.59375 -15.957031 7.59375 -13.09375 C 7.59375 -10.21875 8.046875 -8.09375 8.953125 -6.71875 C 9.859375 -5.351562 11.097656 -4.671875 12.671875 -4.671875 Z M 12.671875 -4.671875 "/></g></g><g style="fill:#000000;fill-opacity:1;"><g transform="translate(202.751809, 177.685286)"><path style="stroke:none" d=""/></g></g><g style="fill:#000000;fill-opacity:1;"><g transform="translate(214.454658, 177.685286)"><path style="stroke:none" d=""/></g></g><g style="fill:#000000;fill-opacity:1;"><g transform="translate(226.163954, 177.685286)"><path style="stroke:none" d="M 22.328125 -13.609375 C 23.816406 -13.140625 24.984375 -12.347656 25.828125 -11.234375 C 26.679688 -10.128906 27.109375 -8.765625 27.109375 -7.140625 C 27.109375 -4.847656 26.21875 -3.082031 24.4375 -1.84375 C 22.65625 -0.613281 20.054688 0 16.640625 0 L 3.109375 0 L 3.109375 -26.171875 L 15.890625 -26.171875 C 19.078125 -26.171875 21.523438 -25.5625 23.234375 -24.34375 C 24.941406 -23.125 25.796875 -21.46875 25.796875 -19.375 C 25.796875 -18.101562 25.488281 -16.96875 24.875 -15.96875 C 24.269531 -14.96875 23.421875 -14.179688 22.328125 -13.609375 Z M 9.125 -21.609375 L 9.125 -15.4375 L 15.140625 -15.4375 C 16.640625 -15.4375 17.773438 -15.695312 18.546875 -16.21875 C 19.316406 -16.75 19.703125 -17.523438 19.703125 -18.546875 C 19.703125 -19.566406 19.316406 -20.332031 18.546875 -20.84375 C 17.773438 -21.351562 16.640625 -21.609375 15.140625 -21.609375 Z M 16.1875 -4.5625 C 17.78125 -4.5625 18.984375 -4.820312 19.796875 -5.34375 C 20.609375 -5.863281 21.015625 -6.675781 21.015625 -7.78125 C 21.015625 -9.945312 19.40625 -11.03125 16.1875 -11.03125 L 9.125 -11.03125 L 9.125 -4.5625 Z M 16.1875 -4.5625 "/></g></g><g style="fill:#000000;fill-opacity:1;"><g transform="translate(255.888436, 177.685286)"><path style="stroke:none" d="M 7.921875 0.453125 C 6.148438 0.453125 4.523438 0.125 3.046875 -0.53125 C 1.566406 -1.195312 0.351562 -2.140625 -0.59375 -3.359375 L 2.765625 -7.40625 C 4.179688 -5.488281 5.800781 -4.53125 7.625 -4.53125 C 10.09375 -4.53125 11.328125 -5.972656 11.328125 -8.859375 L 11.328125 -21.3125 L 2.125 -21.3125 L 2.125 -26.171875 L 17.34375 -26.171875 L 17.34375 -9.203125 C 17.34375 -5.984375 16.546875 -3.566406 14.953125 -1.953125 C 13.359375 -0.347656 11.015625 0.453125 7.921875 0.453125 Z M 7.921875 0.453125 "/></g></g><g style="fill:#000000;fill-opacity:1;"><g transform="translate(277.237717, 177.685286)"><path style="stroke:none" d="M 7.921875 0.453125 C 6.148438 0.453125 4.523438 0.125 3.046875 -0.53125 C 1.566406 -1.195312 0.351562 -2.140625 -0.59375 -3.359375 L 2.765625 -7.40625 C 4.179688 -5.488281 5.800781 -4.53125 7.625 -4.53125 C 10.09375 -4.53125 11.328125 -5.972656 11.328125 -8.859375 L 11.328125 -21.3125 L 2.125 -21.3125 L 2.125 -26.171875 L 17.34375 -26.171875 L 17.34375 -9.203125 C 17.34375 -5.984375 16.546875 -3.566406 14.953125 -1.953125 C 13.359375 -0.347656 11.015625 0.453125 7.921875 0.453125 Z M 7.921875 0.453125 "/></g></g><path style="fill:none;stroke-width:3;stroke-linecap:butt;stroke-linejoin:miter;stroke:#000000;stroke-opacity:1;stroke-miterlimit:4;" d="M -0.00165942 1.499619 L 52.139006 1.499619 " transform="matrix(0,0.748201,-0.748201,0,214.625923,146.501242)"/><g clip-rule="nonzero" clip-path="url(#1d3a803d65)"><path style=" stroke:none;fill-rule:nonzero;fill:#000000;fill-opacity:1;" d="M 156.230469 201.371094 L 127.203125 214.308594 L 70.746094 205.734375 L 70.746094 189.734375 C 80.773438 191.96875 118.285156 199.839844 156.230469 201.371094 Z M 156.230469 201.371094 "/></g><g clip-rule="nonzero" clip-path="url(#6779045eca)"><path style=" stroke:none;fill-rule:nonzero;fill:#000000;fill-opacity:1;" d="M 218.941406 201.367188 C 256.886719 199.835938 294.398438 191.964844 304.425781 189.730469 L 304.425781 205.730469 L 247.972656 214.304688 Z M 218.941406 201.367188 "/></g><path style=" stroke:none;fill-rule:nonzero;fill:#000000;fill-opacity:1;" d="M 159.203125 197.226562 L 159.542969 196.519531 Z M 159.203125 197.226562 "/><g clip-rule="nonzero" clip-path="url(#95de339af8)"><path style=" stroke:none;fill-rule:nonzero;fill:#000000;fill-opacity:1;" d="M 204.179688 194.023438 C 200.886719 191.417969 197.046875 188.386719 193.808594 187.503906 L 193.8125 212.011719 C 193.820312 212.089844 193.820312 212.164062 193.816406 212.242188 L 193.816406 230.191406 L 207.382812 221.117188 L 207.382812 196.488281 C 206.371094 195.757812 205.304688 194.914062 204.179688 194.023438 Z M 204.179688 194.023438 "/></g><path style=" stroke:none;fill-rule:nonzero;fill:#000000;fill-opacity:1;" d="M 189.582031 208.734375 L 189.582031 197.847656 L 176.914062 191.171875 L 164.601562 196.609375 Z M 189.582031 208.734375 "/><path style=" stroke:none;fill-rule:nonzero;fill:#000000;fill-opacity:1;" d="M 189.585938 221.4375 L 189.582031 213.464844 L 186.996094 212.207031 L 164.1875 222.5 L 176.910156 228.113281 Z M 189.585938 221.4375 "/><g clip-rule="nonzero" clip-path="url(#5ee5df151c)"><path style=" stroke:none;fill-rule:nonzero;fill:#000000;fill-opacity:1;" d="M 211.632812 202.753906 L 211.632812 218.230469 L 283.351562 250.496094 L 295.847656 240.285156 L 247.015625 218.523438 C 246.890625 218.480469 246.773438 218.429688 246.660156 218.363281 Z M 211.632812 202.753906 "/></g><g clip-rule="nonzero" clip-path="url(#57cdcbe2d3)"><path style=" stroke:none;fill-rule:nonzero;fill:#000000;fill-opacity:1;" d="M 158.15625 220.5625 C 158.117188 220.574219 158.082031 220.59375 158.046875 220.609375 L 91.820312 250.496094 L 79.324219 240.289062 L 128.15625 218.527344 C 128.28125 218.484375 128.402344 218.429688 128.515625 218.367188 L 165.617188 201.832031 L 182.019531 209.792969 Z M 158.15625 220.5625 "/></g><g style="fill:#ffffff;fill-opacity:1;"><g transform="translate(93.887874, 244.248876)"><path style="stroke:none" d="M -0.546875 -6.0625 L 2.140625 -2.703125 L 1.4375 -6.953125 L 2.8125 -7.578125 L 5.171875 -2.328125 L 4.109375 -1.84375 L 3.46875 -3.265625 L 2.578125 -5.5 L 3.15625 -1.421875 L 2.4375 -1.09375 L -0.25 -4.234375 L 0.84375 -2.09375 L 1.484375 -0.671875 L 0.421875 -0.1875 L -1.9375 -5.4375 Z M -0.546875 -6.0625 "/></g></g><g style="fill:#ffffff;fill-opacity:1;"><g transform="translate(100.993561, 241.049321)"><path style="stroke:none" d="M 2.4375 -2.375 L 1 -1.734375 L 1.203125 -0.53125 L 0.078125 -0.03125 L -0.640625 -6.03125 L 0.328125 -6.46875 L 4.34375 -1.953125 L 3.203125 -1.4375 Z M 0.828125 -2.71875 L 1.8125 -3.171875 L 0.484375 -4.828125 Z M 0.828125 -2.71875 "/></g></g><g style="fill:#ffffff;fill-opacity:1;"><g transform="translate(106.909463, 238.385504)"><path style="stroke:none" d="M 0.421875 -0.1875 L -1.9375 -5.4375 L -0.546875 -6.0625 C 0.0546875 -6.332031 0.628906 -6.351562 1.171875 -6.125 C 1.710938 -5.90625 2.140625 -5.457031 2.453125 -4.78125 L 2.828125 -3.921875 C 3.140625 -3.242188 3.203125 -2.625 3.015625 -2.0625 C 2.828125 -1.507812 2.414062 -1.085938 1.78125 -0.796875 Z M -0.484375 -5.03125 L 1.09375 -1.5625 L 1.40625 -1.703125 C 1.757812 -1.859375 1.96875 -2.0625 2.03125 -2.3125 C 2.09375 -2.5625 2.023438 -2.914062 1.828125 -3.375 L 1.421875 -4.28125 C 1.191406 -4.78125 0.960938 -5.09375 0.734375 -5.21875 C 0.515625 -5.34375 0.234375 -5.335938 -0.109375 -5.203125 Z M -0.484375 -5.03125 "/></g></g><g style="fill:#ffffff;fill-opacity:1;"><g transform="translate(112.587407, 235.828834)"><path style="stroke:none" d="M 1.15625 -2.828125 L 0.625 -2.59375 L 1.484375 -0.671875 L 0.421875 -0.1875 L -1.9375 -5.4375 L -0.25 -6.203125 C 0.28125 -6.441406 0.753906 -6.488281 1.171875 -6.34375 C 1.585938 -6.195312 1.90625 -5.867188 2.125 -5.359375 C 2.4375 -4.671875 2.40625 -4.066406 2.03125 -3.546875 L 3.90625 -1.828125 L 3.9375 -1.765625 L 2.8125 -1.265625 Z M 0.21875 -3.484375 L 0.8125 -3.75 C 1.03125 -3.84375 1.160156 -3.976562 1.203125 -4.15625 C 1.242188 -4.34375 1.210938 -4.554688 1.109375 -4.796875 C 0.867188 -5.316406 0.546875 -5.488281 0.140625 -5.3125 L -0.484375 -5.03125 Z M 0.21875 -3.484375 "/></g></g><g style="fill:#ffffff;fill-opacity:1;"><g transform="translate(118.182426, 233.309503)"><path style="stroke:none" d="M 1.53125 -0.6875 L 0.46875 -0.21875 L -1.890625 -5.46875 L -0.828125 -5.9375 Z M 1.53125 -0.6875 "/></g></g><g style="fill:#ffffff;fill-opacity:1;"><g transform="translate(121.686308, 231.731773)"><path style="stroke:none" d="M 0.421875 -0.1875 L -1.9375 -5.4375 L -0.546875 -6.0625 C 0.0546875 -6.332031 0.628906 -6.351562 1.171875 -6.125 C 1.710938 -5.90625 2.140625 -5.457031 2.453125 -4.78125 L 2.828125 -3.921875 C 3.140625 -3.242188 3.203125 -2.625 3.015625 -2.0625 C 2.828125 -1.507812 2.414062 -1.085938 1.78125 -0.796875 Z M -0.484375 -5.03125 L 1.09375 -1.5625 L 1.40625 -1.703125 C 1.757812 -1.859375 1.96875 -2.0625 2.03125 -2.3125 C 2.09375 -2.5625 2.023438 -2.914062 1.828125 -3.375 L 1.421875 -4.28125 C 1.191406 -4.78125 0.960938 -5.09375 0.734375 -5.21875 C 0.515625 -5.34375 0.234375 -5.335938 -0.109375 -5.203125 Z M -0.484375 -5.03125 "/></g></g><g style="fill:#ffffff;fill-opacity:1;"><g transform="translate(127.364252, 229.175103)"><path style="stroke:none" d=""/></g></g><g style="fill:#ffffff;fill-opacity:1;"><g transform="translate(130.57249, 227.730494)"><path style="stroke:none" d="M 2.4375 -2.375 L 1 -1.734375 L 1.203125 -0.53125 L 0.078125 -0.03125 L -0.640625 -6.03125 L 0.328125 -6.46875 L 4.34375 -1.953125 L 3.203125 -1.4375 Z M 0.828125 -2.71875 L 1.8125 -3.171875 L 0.484375 -4.828125 Z M 0.828125 -2.71875 "/></g></g><g style="fill:#ffffff;fill-opacity:1;"><g transform="translate(136.488389, 225.066678)"><path style="stroke:none" d="M 3.1875 -3.546875 C 3.425781 -2.929688 3.457031 -2.398438 3.28125 -1.953125 C 3.113281 -1.503906 2.753906 -1.148438 2.203125 -0.890625 C 1.597656 -0.628906 1.050781 -0.617188 0.5625 -0.859375 C 0.0703125 -1.109375 -0.332031 -1.597656 -0.65625 -2.328125 L -1.046875 -3.203125 C -1.367188 -3.921875 -1.453125 -4.550781 -1.296875 -5.09375 C -1.148438 -5.632812 -0.785156 -6.035156 -0.203125 -6.296875 C 0.359375 -6.546875 0.859375 -6.578125 1.296875 -6.390625 C 1.734375 -6.210938 2.109375 -5.835938 2.421875 -5.265625 L 1.359375 -4.78125 C 1.179688 -5.144531 1.007812 -5.375 0.84375 -5.46875 C 0.675781 -5.5625 0.457031 -5.546875 0.1875 -5.421875 C -0.101562 -5.285156 -0.265625 -5.09375 -0.296875 -4.84375 C -0.328125 -4.59375 -0.242188 -4.238281 -0.046875 -3.78125 L 0.390625 -2.8125 C 0.628906 -2.28125 0.851562 -1.941406 1.0625 -1.796875 C 1.269531 -1.660156 1.519531 -1.65625 1.8125 -1.78125 C 2.082031 -1.90625 2.238281 -2.054688 2.28125 -2.234375 C 2.320312 -2.421875 2.273438 -2.695312 2.140625 -3.0625 Z M 3.1875 -3.546875 "/></g></g><g style="fill:#ffffff;fill-opacity:1;"><g transform="translate(142.205995, 222.492149)"><path style="stroke:none" d="M 2.4375 -2.375 L 1 -1.734375 L 1.203125 -0.53125 L 0.078125 -0.03125 L -0.640625 -6.03125 L 0.328125 -6.46875 L 4.34375 -1.953125 L 3.203125 -1.4375 Z M 0.828125 -2.71875 L 1.8125 -3.171875 L 0.484375 -4.828125 Z M 0.828125 -2.71875 "/></g></g><g style="fill:#ffffff;fill-opacity:1;"><g transform="translate(148.121894, 219.828333)"><path style="stroke:none" d="M 0.421875 -0.1875 L -1.9375 -5.4375 L -0.546875 -6.0625 C 0.0546875 -6.332031 0.628906 -6.351562 1.171875 -6.125 C 1.710938 -5.90625 2.140625 -5.457031 2.453125 -4.78125 L 2.828125 -3.921875 C 3.140625 -3.242188 3.203125 -2.625 3.015625 -2.0625 C 2.828125 -1.507812 2.414062 -1.085938 1.78125 -0.796875 Z M -0.484375 -5.03125 L 1.09375 -1.5625 L 1.40625 -1.703125 C 1.757812 -1.859375 1.96875 -2.0625 2.03125 -2.3125 C 2.09375 -2.5625 2.023438 -2.914062 1.828125 -3.375 L 1.421875 -4.28125 C 1.191406 -4.78125 0.960938 -5.09375 0.734375 -5.21875 C 0.515625 -5.34375 0.234375 -5.335938 -0.109375 -5.203125 Z M -0.484375 -5.03125 "/></g></g><g style="fill:#ffffff;fill-opacity:1;"><g transform="translate(153.799844, 217.271661)"><path style="stroke:none" d="M 2.125 -3.671875 L 0.46875 -2.9375 L 1.09375 -1.5625 L 3.046875 -2.4375 L 3.4375 -1.546875 L 0.421875 -0.1875 L -1.9375 -5.4375 L 1.078125 -6.796875 L 1.46875 -5.90625 L -0.484375 -5.03125 L 0.078125 -3.796875 L 1.734375 -4.53125 Z M 2.125 -3.671875 "/></g></g><g style="fill:#ffffff;fill-opacity:1;"><g transform="translate(158.929761, 214.961757)"><path style="stroke:none" d="M -0.546875 -6.0625 L 2.140625 -2.703125 L 1.4375 -6.953125 L 2.8125 -7.578125 L 5.171875 -2.328125 L 4.109375 -1.84375 L 3.46875 -3.265625 L 2.578125 -5.5 L 3.15625 -1.421875 L 2.4375 -1.09375 L -0.25 -4.234375 L 0.84375 -2.09375 L 1.484375 -0.671875 L 0.421875 -0.1875 L -1.9375 -5.4375 Z M -0.546875 -6.0625 "/></g></g><g style="fill:#ffffff;fill-opacity:1;"><g transform="translate(166.035448, 211.762202)"><path style="stroke:none" d="M 0.71875 -3.796875 L 0.4375 -6.5 L 1.59375 -7.03125 L 1.671875 -3.046875 L 2.53125 -1.140625 L 1.46875 -0.65625 L 0.609375 -2.5625 L -2.296875 -5.28125 L -1.140625 -5.796875 Z M 0.71875 -3.796875 "/></g></g><g clip-rule="nonzero" clip-path="url(#42058f510b)"><g clip-rule="nonzero" clip-path="url(#b208be28b3)"><path style=" stroke:none;fill-rule:nonzero;fill:#cc0624;fill-opacity:1;" d="M 247.710938 218.847656 L 273.980469 230.972656 L 268.316406 243.246094 L 242.046875 231.121094 Z M 247.710938 218.847656 "/></g></g><g clip-rule="nonzero" clip-path="url(#5b4a9bade0)"><g clip-rule="nonzero" clip-path="url(#201833e162)"><g clip-rule="nonzero" clip-path="url(#b9fa8da104)"><path style="fill:none;stroke-width:2;stroke-linecap:butt;stroke-linejoin:miter;stroke:#121012;stroke-opacity:1;stroke-miterlimit:4;" d="M -0.00181647 -0.00183042 L 38.580634 0.00108997 L 38.579562 18.01184 L -0.000703766 18.013653 Z M -0.00181647 -0.00183042 " transform="matrix(0.680385,0.314008,-0.314008,0.680385,247.711599,218.849472)"/></g></g></g><g clip-rule="nonzero" clip-path="url(#f0c10f73c9)"><g clip-rule="nonzero" clip-path="url(#059022809f)"><path style="fill:none;stroke-width:10;stroke-linecap:butt;stroke-linejoin:miter;stroke:#000000;stroke-opacity:1;stroke-miterlimit:4;" d="M 200.00001 0.00000328333 C 89.54167 0.00000328333 -0.00000271667 89.541676 -0.00000271667 200.000016 C -0.00000271667 310.458357 89.54167 400.00003 200.00001 400.00003 C 310.458351 400.00003 400.000024 310.458357 400.000024 200.000016 C 400.000024 89.541676 310.458351 0.00000328333 200.00001 0.00000328333 Z M 200.00001 0.00000328333 " transform="matrix(0.75,0,0,0.75,37.500002,37.499998)"/></g></g></g></svg>